<?xml version="1.0" encoding="UTF-8" standalone="no"?>
<svg xmlns="http://www.w3.org/2000/svg" version="1.1" viewBox="0.00 0.00 2364.00 1330.00">
  <g stroke-width="2.00" fill="none" stroke-linecap="butt">
    <path stroke="#9396cb" vector-effect="non-scaling-stroke" d="   M 1572.95 321.50   L 1539.53 323.88"></path>
    <path stroke="#ffca80" vector-effect="non-scaling-stroke" d="   M 1539.53 323.88   Q 1535.89 319.81 1532.31 315.69   C 1531.74 315.04 1531.06 314.87 1530.68 314.29   Q 1530.22 313.57 1529.83 313.16   Q 1520.92 303.98 1512.50 295.99   Q 1503.10 287.07 1500.30 284.52   Q 1496.65 281.22 1479.57 264.02   Q 1474.45 258.86 1468.67 252.59   Q 1463.85 247.36 1458.60 242.65   Q 1455.72 240.07 1454.83 239.20   Q 1453.27 237.68 1452.74 237.24   Q 1450.96 235.75 1428.62 215.45   Q 1424.11 211.35 1418.47 207.07   Q 1413.83 203.55 1408.28 198.74   Q 1397.29 189.21 1380.12 173.15   C 1370.33 163.99 1361.47 156.10 1350.46 148.83   Q 1333.93 137.91 1314.21 127.09   Q 1304.34 121.67 1295.47 118.24   Q 1283.26 113.52 1275.89 111.18   Q 1257.79 105.46 1234.19 99.81   Q 1221.65 96.80 1209.55 95.34   Q 1182.88 92.11 1147.00 89.16   Q 1118.87 86.85 1113.08 86.62   C 1106.00 86.34 1100.67 86.57 1095.03 86.22   C 1086.64 85.71 1076.23 86.35 1068.82 86.38   Q 1063.84 86.40 1056.17 86.83   Q 1023.83 88.64 990.65 94.12   Q 988.88 94.41 988.58 94.41   A 1.54 0.14 1.2 0 0 987.43 94.49   Q 985.73 95.13 982.65 95.49   Q 981.58 95.62 978.03 96.29   Q 953.53 100.92 929.13 107.58"></path>
    <path stroke="#9396cb" vector-effect="non-scaling-stroke" d="   M 929.13 107.58   Q 921.73 106.02 913.75 105.61   Q 890.91 104.44 868.12 106.94"></path>
    <path stroke="#797abe" vector-effect="non-scaling-stroke" d="   M 1631.17 1001.22   L 1614.31 1013.70"></path>
    <path stroke="#9396cb" vector-effect="non-scaling-stroke" d="   M 1614.31 1013.70   C 1589.97 1032.74 1565.55 1052.92 1541.64 1071.14   Q 1522.97 1085.36 1502.18 1101.26   Q 1478.70 1119.20 1469.33 1126.81   Q 1453.52 1139.64 1436.85 1152.84   Q 1431.39 1157.17 1426.48 1159.86   Q 1422.56 1162.00 1410.01 1167.81   Q 1409.96 1167.83 1409.91 1167.85   L 1407.11 1168.65"></path>
    <path stroke="#306269" vector-effect="non-scaling-stroke" d="   M 1407.11 1168.65   Q 1406.58 1168.46 1406.00 1168.68   Q 1377.19 1179.59 1347.64 1188.29   Q 1347.11 1188.44 1346.64 1188.67"></path>
    <path stroke="#93614c" vector-effect="non-scaling-stroke" d="   M 1346.64 1188.67   C 1339.82 1190.31 1331.20 1193.00 1326.39 1194.32   Q 1251.46 1214.98 1174.82 1227.97   Q 1172.90 1228.30 1171.06 1229.08"></path>
    <path stroke="#9396cb" vector-effect="non-scaling-stroke" d="   M 1171.06 1229.08   L 1147.71 1232.06"></path>
    <path stroke="#93614c" vector-effect="non-scaling-stroke" d="   M 1147.71 1232.06   L 1137.10 1232.36   A 2.18 2.07 -33.3 0 1 1136.26 1232.21   L 651.00 1035.59"></path>
    <path stroke="#9396cb" vector-effect="non-scaling-stroke" d="   M 651.00 1035.59   L 619.54 1022.74"></path>
    <path stroke="#797abe" vector-effect="non-scaling-stroke" d="   M 619.54 1022.74   Q 619.21 1022.45 618.72 1022.52"></path>
    <path stroke="#797abe" vector-effect="non-scaling-stroke" d="   M 616.72 1021.67   L 607.81 1018.09"></path>
    <path stroke="#797abe" vector-effect="non-scaling-stroke" d="   M 562.15 377.34   Q 563.62 378.06 564.09 377.09"></path>
    <path stroke="#9396cb" vector-effect="non-scaling-stroke" d="   M 566.98 377.09   L 603.38 373.09"></path>
    <path stroke="#93614c" vector-effect="non-scaling-stroke" d="   M 603.38 373.09   L 711.98 361.65   A 0.39 0.39 0.0 0 0 712.19 360.97   Q 698.68 349.76 685.84 337.57   Q 675.72 327.95 672.05 324.52   Q 663.03 316.07 654.54 307.87"></path>
    <path stroke="#9396cb" vector-effect="non-scaling-stroke" d="   M 654.54 307.87   L 636.11 288.00"></path>
    <path stroke="#797abe" vector-effect="non-scaling-stroke" d="   M 863.93 107.27   Q 865.10 107.71 866.04 107.13"></path>
    <path stroke="#93614c" vector-effect="non-scaling-stroke" d="   M 1539.53 323.88   Q 1464.29 328.72 1388.95 332.01   C 1383.07 332.27 1375.07 332.37 1371.18 332.16   A 1.84 1.83 84.2 0 1 1369.50 330.79   Q 1368.92 328.57 1368.82 327.22   Q 1368.09 316.97 1366.50 305.51   Q 1366.17 303.08 1365.40 301.53   A 3.19 3.19 0.0 0 0 1362.12 299.78   Q 1342.73 302.36 1332.19 303.65   Q 1321.28 304.99 1302.34 308.09   Q 1256.73 315.55 1207.23 322.40   Q 1191.59 324.57 1177.97 326.06   A 0.85 0.83 69.1 0 1 1177.18 325.70   Q 1175.79 323.63 1174.90 321.82   Q 1166.01 303.76 1160.20 293.01   Q 1158.31 289.51 1154.73 284.04   C 1143.31 266.57 1128.93 244.82 1114.78 226.77   Q 1094.84 201.34 1092.48 198.47   C 1085.59 190.08 1076.33 181.75 1070.38 175.04   Q 1065.59 169.64 1062.29 166.96   C 1050.71 157.56 1038.01 149.54 1024.67 141.84   Q 1008.15 132.30 989.17 124.81   Q 978.90 120.76 959.99 115.73   Q 944.64 111.65 929.13 107.58"></path>
    <path stroke="#e5e4f3" vector-effect="non-scaling-stroke" d="   M 1614.47 1013.80   Q 1614.39 1013.75 1614.31 1013.70"></path>
    <path stroke="#9396cb" vector-effect="non-scaling-stroke" d="   M 1008.47 1267.20   L 1007.51 1267.00"></path>
    <path stroke="#9396cb" vector-effect="non-scaling-stroke" d="   M 995.80 1266.65   Q 995.03 1266.70 994.75 1266.42"></path>
    <path stroke="#e5e4f3" vector-effect="non-scaling-stroke" d="   M 619.32 1022.97   Q 619.34 1022.89 619.54 1022.74"></path>
    <path stroke="#ffca80" vector-effect="non-scaling-stroke" d="   M 651.00 1035.59   Q 655.40 1043.32 658.33 1046.91   Q 676.18 1068.86 676.51 1069.26   Q 697.11 1094.10 720.87 1114.63   Q 729.91 1122.44 737.66 1127.82   Q 769.79 1150.10 809.42 1172.17   C 810.98 1173.04 812.48 1173.43 813.78 1174.42   Q 815.04 1175.39 817.09 1176.39   Q 818.62 1177.13 825.84 1180.87   Q 868.82 1203.13 910.07 1217.88   Q 936.86 1227.46 963.12 1234.04   Q 969.85 1235.72 977.37 1236.30   Q 1002.57 1238.25 1016.50 1238.44   Q 1049.99 1238.90 1060.75 1238.45   Q 1089.84 1237.23 1097.00 1236.74   Q 1115.99 1235.43 1147.71 1232.06"></path>
    <path stroke="#ffca80" vector-effect="non-scaling-stroke" d="   M 1171.06 1229.08   Q 1172.81 1229.16 1175.26 1228.74   Q 1199.06 1224.73 1215.60 1221.46   C 1260.47 1212.59 1305.13 1202.03 1348.90 1188.66"></path>
    <path stroke="#9ccb9d" vector-effect="non-scaling-stroke" d="   M 1348.90 1188.66   C 1356.53 1186.41 1364.54 1184.15 1371.68 1181.64   C 1379.40 1178.93 1387.24 1176.66 1395.24 1173.55   Q 1397.65 1172.60 1405.20 1169.63   Q 1406.20 1169.24 1407.11 1168.65"></path>
    <path stroke="#ffca80" vector-effect="non-scaling-stroke" d="   M 654.54 307.87   L 603.38 373.09"></path>
    <path stroke="#9c961e" vector-effect="non-scaling-stroke" d="   M 1348.90 1188.66   L 1346.64 1188.67"></path>
    <path stroke="#797abe" vector-effect="non-scaling-stroke" d="   M 1962.66 749.87   Q 1961.65 752.67 1962.64 755.37"></path>
    <path stroke="#306269" vector-effect="non-scaling-stroke" d="   M 842.15 142.51   Q 835.45 142.55 827.81 144.82   Q 810.44 149.98 800.74 153.73   Q 783.68 160.32 769.41 166.70   Q 725.93 186.13 686.49 200.01   Q 668.01 206.51 640.60 218.56   Q 640.23 218.73 631.16 223.84   C 628.74 225.20 627.17 227.26 629.04 229.76   Q 632.25 234.07 642.58 245.23   Q 649.93 253.19 681.48 285.57   C 686.42 290.64 693.25 297.53 698.88 302.28   C 712.01 313.35 729.41 329.37 743.85 340.39   Q 777.64 366.18 816.53 383.70   Q 831.91 390.64 848.27 395.68   Q 853.10 397.17 858.48 398.13"></path>
    <path stroke="#267665" vector-effect="non-scaling-stroke" d="   M 858.48 398.13   Q 872.19 400.92 889.00 402.20   Q 925.98 405.04 960.68 402.27   Q 973.04 401.28 994.88 398.10   Q 1021.09 394.27 1028.97 393.11   Q 1040.01 391.47 1050.52 389.92"></path>
    <path stroke="#306269" vector-effect="non-scaling-stroke" d="   M 1050.52 389.92   Q 1059.56 389.40 1068.06 388.36   Q 1084.19 386.41 1100.00 391.24   C 1113.12 395.25 1124.71 402.56 1134.58 411.99   Q 1140.84 417.97 1144.46 423.53   Q 1162.04 450.49 1179.96 477.24"></path>
    <path stroke="#267665" vector-effect="non-scaling-stroke" d="   M 1179.96 477.24   Q 1187.23 488.91 1195.08 500.19   Q 1198.95 505.75 1200.94 507.82   Q 1202.61 509.55 1205.16 509.39   A 1.96 1.94 25.0 0 0 1206.14 509.04   C 1211.30 505.33 1208.82 497.54 1206.14 492.86   C 1200.24 482.57 1196.03 473.33 1191.08 463.70   Q 1185.31 452.48 1169.47 421.57   Q 1158.52 400.20 1152.97 387.54   Q 1145.41 370.31 1137.61 349.92   Q 1128.97 327.30 1122.67 314.04   Q 1106.50 280.01 1087.19 250.05   C 1075.84 232.45 1064.69 221.71 1048.15 204.60   Q 1038.97 195.11 1026.79 186.77   C 1013.84 177.91 1000.56 168.41 994.27 164.48   Q 978.36 154.55 959.78 148.74   C 930.80 139.67 899.90 137.03 869.45 138.94   Q 856.70 139.74 855.66 139.84   Q 848.36 140.59 842.15 142.51"></path>
    <path stroke="#2eac38" vector-effect="non-scaling-stroke" d="   M 1179.96 477.24   Q 1180.28 476.10 1180.05 475.50   C 1171.13 452.09 1158.75 430.62 1143.18 411.08   Q 1140.95 408.28 1137.19 404.14   C 1121.46 386.83 1101.28 375.21 1077.07 380.81   Q 1069.96 382.45 1050.52 389.92"></path>
    <path stroke="#2eac38" vector-effect="non-scaling-stroke" d="   M 858.48 398.13   Q 831.76 382.55 823.98 377.76   Q 797.78 361.60 774.37 343.88   Q 761.08 333.83 743.34 319.88   Q 728.15 307.94 717.01 297.45   Q 695.43 277.10 691.76 273.59   Q 676.77 259.24 662.38 243.11   Q 662.34 243.07 658.46 238.55   Q 654.58 234.03 652.18 229.73   A 1.06 1.05 60.2 0 1 652.56 228.30   Q 671.35 217.15 691.63 208.13   Q 717.42 196.65 733.72 189.33   Q 746.27 183.70 776.06 171.14   Q 809.01 157.26 842.15 142.51"></path>
    <path stroke="#9396cb" vector-effect="non-scaling-stroke" d="   M 1388.21 484.83   L 1436.74 480.61   A 2.61 2.61 0.0 0 1 1439.57 483.02   L 1440.06 489.77"></path>
    <path stroke="#797abe" vector-effect="non-scaling-stroke" d="   M 1440.06 489.77   Q 1441.81 516.17 1443.74 542.50   Q 1453.48 675.46 1463.45 788.50   Q 1465.28 809.26 1467.68 829.96   Q 1468.42 836.35 1473.89 839.34   Q 1476.39 840.70 1477.91 840.16"></path>
    <path stroke="#9396cb" vector-effect="non-scaling-stroke" d="   M 1477.91 840.16   Q 1534.25 834.51 1589.01 829.16   C 1594.47 828.62 1593.77 823.49 1593.62 819.55   Q 1591.16 753.04 1588.35 682.92   C 1587.04 650.26 1584.83 617.99 1583.27 580.25   C 1582.10 552.09 1578.85 510.78 1578.83 481.59   C 1578.82 472.86 1584.21 473.40 1591.83 472.93   Q 1630.57 470.53 1661.50 469.01   C 1668.06 468.68 1668.64 462.84 1668.20 457.75   Q 1667.62 451.14 1665.25 433.74   Q 1660.29 397.50 1655.17 361.17"></path>
    <path stroke="#797abe" vector-effect="non-scaling-stroke" d="   M 1655.17 361.17   C 1655.25 352.83 1652.15 351.51 1644.37 352.12   Q 1582.60 356.98 1551.25 358.97   Q 1480.13 363.48 1391.26 369.30   Q 1383.10 369.83 1366.19 371.06   C 1359.12 371.57 1353.73 372.69 1354.70 380.75   Q 1359.92 424.25 1367.92 478.76   C 1368.47 482.50 1370.84 483.96 1374.33 485.12   A 4.11 3.85 -31.6 0 0 1375.26 485.31   Q 1381.74 485.80 1388.21 484.83"></path>
    <path stroke="#e5e4f3" vector-effect="non-scaling-stroke" d="   M 1655.17 361.17   Q 1653.67 360.29 1651.78 360.44   Q 1488.71 372.81 1484.00 373.14   Q 1434.86 376.53 1380.25 380.71   Q 1377.69 380.91 1375.53 381.40   A 2.98 2.97 -3.8 0 0 1373.23 384.02   Q 1373.13 385.11 1373.43 387.27   Q 1385.35 472.03 1386.90 483.03   Q 1387.12 484.53 1388.21 484.83"></path>
    <path stroke="#e5e4f3" vector-effect="non-scaling-stroke" d="   M 1477.91 840.16   L 1453.60 488.53   A 0.68 0.67 -6.0 0 0 1452.83 487.91   L 1440.06 489.77"></path>
    <path stroke="#9396cb" vector-effect="non-scaling-stroke" d="   M 1240.97 592.06   Q 1238.13 589.78 1236.40 587.84   C 1231.83 582.72 1224.24 573.92 1217.47 567.44   Q 1185.85 537.14 1167.11 517.39   Q 1146.94 496.14 1126.59 475.10"></path>
    <path stroke="#797abe" vector-effect="non-scaling-stroke" d="   M 1126.59 475.10   Q 1123.09 470.75 1117.72 468.76   Q 1108.33 465.29 1097.25 465.54   Q 1089.88 465.71 1085.77 466.35   C 1061.20 470.20 1029.08 473.98 1013.48 475.92   C 1005.98 476.85 1004.21 480.21 1004.96 487.36   Q 1008.77 523.45 1017.23 589.51   Q 1019.44 606.77 1028.92 680.60   C 1034.41 723.35 1038.01 756.11 1043.09 800.38   Q 1048.28 845.51 1054.71 888.25   C 1055.09 890.81 1055.34 893.75 1057.28 895.45   Q 1059.56 897.45 1062.74 896.99"></path>
    <path stroke="#9396cb" vector-effect="non-scaling-stroke" d="   M 1062.74 896.99   Q 1108.80 890.63 1154.22 885.17   Q 1162.99 884.12 1162.12 875.28   Q 1160.16 855.34 1156.42 825.52   Q 1145.34 737.06 1144.92 733.62   C 1142.79 716.18 1140.29 695.88 1140.57 678.49   C 1140.60 676.65 1141.27 675.29 1143.05 674.80   C 1148.63 673.26 1150.40 675.94 1153.99 680.26   Q 1158.95 686.23 1165.60 693.92   Q 1237.39 776.99 1314.70 864.18   C 1316.75 866.50 1317.70 866.74 1320.72 866.32   Q 1349.82 862.26 1371.51 858.22   Q 1377.11 857.17 1379.50 856.23   Q 1385.65 853.79 1384.86 846.27   Q 1375.44 756.12 1364.36 667.99   Q 1348.47 541.58 1336.99 449.25   Q 1333.63 422.19 1327.63 368.39"></path>
    <path stroke="#797abe" vector-effect="non-scaling-stroke" d="   M 1327.63 368.39   Q 1328.15 364.23 1327.20 358.91   Q 1326.43 354.62 1322.45 353.36   C 1318.89 352.23 1311.35 353.11 1307.50 353.64   Q 1284.66 356.75 1277.42 357.65   Q 1261.18 359.67 1248.27 361.90   Q 1223.16 366.25 1219.16 366.64   C 1215.62 366.99 1214.01 369.07 1214.49 372.52   Q 1219.60 409.59 1229.26 480.25   C 1234.93 521.66 1239.98 557.36 1243.98 590.31   Q 1244.18 591.94 1240.97 592.06"></path>
    <path stroke="#e5e4f3" vector-effect="non-scaling-stroke" d="   M 1327.63 368.39   L 1232.15 374.82   A 0.55 0.54 -5.0 0 0 1231.64 375.42   L 1255.02 600.36   A 0.40 0.40 0.0 0 1 1254.40 600.74   L 1240.97 592.06"></path>
    <path stroke="#e5e4f3" vector-effect="non-scaling-stroke" d="   M 1062.74 896.99   Q 1056.67 841.79 1047.73 772.02   Q 1038.15 697.27 1023.77 574.50   Q 1020.47 546.31 1017.80 521.24   Q 1016.56 509.59 1015.45 495.99   Q 1015.19 492.83 1015.32 490.67   A 0.89 0.88 -2.0 0 1 1016.08 489.86   Q 1066.92 482.90 1121.39 475.35   Q 1122.78 475.16 1126.59 475.10"></path>
    <path stroke="#797abe" vector-effect="non-scaling-stroke" d="   M 448.79 434.13   Q 443.69 437.12 443.94 443.02   Q 444.21 449.47 447.20 470.77   Q 469.50 629.85 470.83 639.19   C 485.05 738.61 496.59 837.25 512.21 939.76   C 512.78 943.49 517.65 944.99 520.72 945.31   Q 527.89 946.07 534.75 945.73"></path>
    <path stroke="#9396cb" vector-effect="non-scaling-stroke" d="   M 534.75 945.73   Q 568.39 942.47 601.81 938.24   Q 610.21 937.18 612.92 936.68   C 618.57 935.64 619.78 933.59 619.33 928.00   Q 611.86 835.02 608.74 795.00   Q 605.68 755.77 603.65 722.00   A 1.10 1.09 -4.9 0 1 604.63 720.84   Q 659.81 715.16 708.28 708.89   C 716.76 707.79 716.73 704.74 715.57 697.24   Q 709.35 657.01 704.65 628.87   Q 704.23 626.36 703.59 623.51   A 2.34 2.31 -71.2 0 0 703.13 622.56   Q 700.72 619.45 697.23 619.90   C 669.17 623.49 633.85 628.66 602.08 632.02   C 595.66 632.70 591.60 632.48 590.80 625.19   Q 585.53 576.78 581.07 538.97   C 580.80 536.66 581.32 534.94 583.66 534.38   Q 591.50 532.51 604.49 530.22   Q 622.11 527.13 694.27 515.56   Q 704.37 513.94 711.53 512.30   C 717.32 510.98 717.97 506.60 716.85 501.28   Q 716.30 498.66 703.04 406.53   Q 701.90 398.61 694.12 399.59   Q 588.83 412.91 460.44 431.58   Q 456.72 432.12 452.95 432.69   Q 451.38 432.93 448.79 434.13"></path>
    <path stroke="#e5e4f3" vector-effect="non-scaling-stroke" d="   M 534.75 945.73   Q 533.90 945.70 533.33 944.84   A 0.62 0.40 -77.8 0 1 533.27 944.68   Q 526.21 904.94 518.39 858.08   Q 492.36 701.94 473.09 582.93   Q 463.58 524.16 454.85 474.93   Q 453.35 466.42 448.79 434.13"></path>
    <path stroke="#797abe" vector-effect="non-scaling-stroke" d="   M 767.65 492.19   Q 762.25 538.12 760.14 558.69   Q 752.53 633.00 751.83 640.04   Q 737.95 779.63 724.36 920.59   A 2.04 2.03 13.2 0 0 725.68 922.70   L 738.73 927.54"></path>
    <path stroke="#9396cb" vector-effect="non-scaling-stroke" d="   M 738.73 927.54   Q 739.53 927.74 739.75 927.72   Q 765.38 924.84 796.09 920.97   C 801.64 920.27 806.20 919.00 807.22 913.47   Q 817.77 856.44 821.55 835.26   Q 822.90 827.69 826.17 804.89   Q 826.81 800.50 830.46 799.89   Q 859.74 795.00 890.91 790.09   A 0.90 0.90 0.0 0 1 891.90 790.68   L 894.59 798.29"></path>
    <path stroke="#797abe" vector-effect="non-scaling-stroke" d="   M 894.59 798.29   Q 913.73 847.47 932.17 896.93   Q 934.35 902.77 934.72 903.34   C 937.85 908.18 945.00 908.56 950.14 907.43"></path>
    <path stroke="#9396cb" vector-effect="non-scaling-stroke" d="   M 950.14 907.43   Q 981.68 902.77 1013.59 899.19   Q 1021.89 898.26 1024.50 896.41   Q 1029.64 892.76 1026.75 884.73   Q 1009.41 836.45 1008.93 835.06   Q 957.19 686.37 915.45 567.04   Q 900.02 522.93 877.42 461.42   Q 875.50 456.20 869.94 456.67   Q 839.11 459.29 801.76 461.84   Q 783.95 463.06 778.01 463.80   C 773.70 464.34 770.48 464.91 769.98 469.72   Q 768.81 480.97 767.65 492.19"></path>
    <path stroke="#e5e4f3" vector-effect="non-scaling-stroke" d="   M 950.14 907.43   L 914.42 793.33   A 0.74 0.74 0.0 0 0 913.51 792.84   L 894.59 798.29"></path>
    <path stroke="#e5e4f3" vector-effect="non-scaling-stroke" d="   M 738.73 927.54   L 739.42 927.04   A 1.06 1.04 74.4 0 0 739.86 926.24   Q 752.36 741.61 765.23 552.24   Q 766.02 540.67 766.02 539.08   Q 766.06 530.70 766.60 525.90   Q 766.61 525.82 766.94 514.78   Q 766.98 513.49 767.87 504.77   Q 768.50 498.51 767.65 492.19"></path>
    <path stroke="#797abe" vector-effect="non-scaling-stroke" d="   M 1625.08 510.41   Q 1623.06 512.24 1623.14 515.56   C 1623.46 530.06 1623.35 543.61 1623.65 557.15   Q 1624.03 574.75 1624.10 584.00   Q 1624.19 595.76 1624.26 606.50   Q 1624.35 621.78 1624.82 637.03   C 1625.21 649.77 1624.86 661.51 1625.39 672.93   C 1625.94 684.68 1625.35 699.04 1625.91 709.20   C 1626.55 720.82 1626.05 734.12 1626.56 744.43   C 1627.00 753.41 1626.69 761.19 1627.06 770.71   Q 1627.25 775.60 1627.46 790.41   Q 1627.62 802.01 1628.12 817.40   C 1628.20 819.91 1628.89 822.79 1631.83 822.64"></path>
    <path stroke="#9396cb" vector-effect="non-scaling-stroke" d="   M 1631.83 822.64   C 1637.14 821.98 1643.30 820.60 1647.55 819.92   Q 1664.02 817.30 1691.86 812.75   C 1696.60 811.98 1699.89 811.62 1701.10 807.10   Q 1701.83 804.40 1703.12 793.87   Q 1703.85 787.94 1706.99 751.75   Q 1707.82 742.14 1708.49 738.73   Q 1709.28 734.74 1713.70 734.16   Q 1738.73 730.89 1757.66 728.59   A 0.83 0.82 70.5 0 1 1758.47 728.98   L 1762.71 735.93"></path>
    <path stroke="#797abe" vector-effect="non-scaling-stroke" d="   M 1762.71 735.93   Q 1775.39 760.99 1786.56 786.50   Q 1789.39 792.97 1795.42 794.33   Q 1801.20 795.64 1808.54 793.87"></path>
    <path stroke="#9396cb" vector-effect="non-scaling-stroke" d="   M 1808.54 793.87   Q 1831.85 790.63 1855.05 786.73   Q 1857.06 786.39 1857.78 784.88   Q 1858.29 783.80 1857.97 782.57   Q 1856.08 775.42 1851.03 758.45   Q 1841.01 724.74 1819.20 655.26   Q 1795.13 578.54 1771.18 502.49"></path>
    <path stroke="#797abe" vector-effect="non-scaling-stroke" d="   M 1771.18 502.49   Q 1769.73 496.36 1767.45 492.05   Q 1764.07 485.66 1758.54 486.90"></path>
    <path stroke="#9396cb" vector-effect="non-scaling-stroke" d="   M 1758.54 486.90   Q 1755.19 486.32 1751.13 487.12   C 1713.97 494.40 1671.92 500.33 1632.20 506.39   Q 1627.45 507.12 1625.08 510.41"></path>
    <path stroke="#e5e4f3" vector-effect="non-scaling-stroke" d="   M 1758.54 486.90   Q 1749.45 488.40 1741.06 489.99   Q 1722.49 493.49 1702.66 496.78   Q 1701.25 497.02 1699.84 497.20   Q 1690.93 498.39 1681.66 499.98   Q 1680.61 500.16 1679.79 500.33   Q 1675.75 501.14 1668.26 502.04   Q 1661.07 502.90 1656.74 503.68   Q 1646.71 505.49 1635.79 506.68   A 3.16 3.14 -57.7 0 0 1635.05 506.85   Q 1633.07 507.55 1631.02 507.66   A 3.06 2.97 28.7 0 0 1629.80 508.00   L 1625.08 510.41"></path>
    <path stroke="#e5e4f3" vector-effect="non-scaling-stroke" d="   M 1771.18 502.49   Q 1722.04 510.87 1672.74 518.97   Q 1663.63 520.46 1654.26 522.01   Q 1649.09 522.87 1645.94 524.52   A 2.93 2.70 4.6 0 0 1645.16 525.13   C 1641.40 529.31 1641.93 535.65 1641.78 540.97   Q 1637.66 686.21 1637.06 704.57   C 1635.85 741.99 1634.75 779.09 1632.58 817.00   Q 1632.47 818.96 1631.83 822.64"></path>
    <path stroke="#e5e4f3" vector-effect="non-scaling-stroke" d="   M 1808.54 793.87   Q 1807.02 793.76 1806.31 792.45   Q 1790.81 763.64 1774.12 734.83   A 0.81 0.80 -18.9 0 0 1773.32 734.44   L 1762.71 735.93"></path>
    <path stroke="#2eac38" vector-effect="non-scaling-stroke" d="   M 1056.56 345.82   A 0.59 0.59 0.0 0 0 1056.54 344.71   Q 1040.80 339.69 1023.87 335.12   Q 1003.04 329.49 975.45 321.03   Q 945.59 311.88 921.10 301.90   Q 903.24 294.62 888.91 286.81   C 867.89 275.35 850.92 265.86 829.81 258.44   C 819.95 254.98 809.86 252.92 800.55 252.44   Q 788.58 251.82 774.76 252.79   Q 765.41 253.45 742.88 257.14   Q 733.72 258.63 729.59 259.15   A 0.55 0.55 0.0 0 0 729.32 260.12   Q 730.38 260.97 731.99 262.01   C 755.33 277.09 778.98 290.71 805.84 306.49   C 813.37 310.92 822.61 317.04 827.76 320.53   Q 858.72 341.45 859.93 342.30   Q 863.90 345.06 872.48 349.98   Q 890.27 360.17 910.16 363.73   C 923.23 366.06 938.69 366.18 951.24 364.90   Q 990.31 360.94 1038.18 350.91   Q 1047.96 348.86 1056.56 345.82"></path>
    <path stroke="#e5e4f3" vector-effect="non-scaling-stroke" d="   M 824.60 719.98   L 831.31 730.71   A 0.69 0.67 67.3 0 0 832.04 731.02   L 881.30 719.84   A 0.71 0.70 -21.0 0 0 881.76 718.81   L 877.79 711.76"></path>
    <path stroke="#9396cb" vector-effect="non-scaling-stroke" d="   M 877.79 711.76   Q 877.33 709.68 876.58 707.34   Q 867.72 679.61 859.11 656.63   Q 856.45 649.54 853.65 643.15   C 852.71 641.02 851.88 640.24 849.73 639.83   Q 843.14 638.59 837.39 641.33   C 833.70 643.08 833.53 647.05 833.07 650.76   Q 828.84 685.39 824.60 719.98"></path>
    <path stroke="#797abe" vector-effect="non-scaling-stroke" d="   M 877.79 711.76   Q 877.12 712.61 876.25 712.73   Q 850.63 716.40 824.60 719.98"></path>
    <path stroke="#e5e4f3" vector-effect="non-scaling-stroke" d="   M 1695.01 652.01   Q 1693.65 654.75 1695.60 657.64   C 1701.73 666.73 1713.26 676.58 1724.57 678.51   Q 1730.37 679.50 1736.81 678.00   C 1751.10 674.68 1756.76 663.58 1758.59 650.03   Q 1759.18 645.62 1757.26 642.27   A 1.00 1.00 0.0 0 0 1756.33 641.77   L 1752.58 642.00"></path>
    <path stroke="#9396cb" vector-effect="non-scaling-stroke" d="   M 1752.58 642.00   C 1753.68 638.85 1753.97 634.00 1751.95 630.98   A 1.20 1.19 75.7 0 0 1751.10 630.47   Q 1748.30 630.16 1746.64 630.88   Q 1736.51 635.32 1726.38 637.49   Q 1713.58 640.24 1697.78 637.68   C 1693.59 637.00 1687.79 639.76 1689.97 645.02   Q 1691.63 649.04 1695.01 652.01"></path>
    <path stroke="#797abe" vector-effect="non-scaling-stroke" d="   M 1752.58 642.00   C 1749.85 654.58 1740.15 666.88 1726.50 667.37   C 1714.52 667.80 1703.47 660.26 1695.01 652.01"></path>
  </g>
  <path fill="#ffffff" d="   M 1572.95 321.50   L 1539.53 323.88   Q 1535.89 319.81 1532.31 315.69   C 1531.74 315.04 1531.06 314.87 1530.68 314.29   Q 1530.22 313.57 1529.83 313.16   Q 1520.92 303.98 1512.50 295.99   Q 1503.10 287.07 1500.30 284.52   Q 1496.65 281.22 1479.57 264.02   Q 1474.45 258.86 1468.67 252.59   Q 1463.85 247.36 1458.60 242.65   Q 1455.72 240.07 1454.83 239.20   Q 1453.27 237.68 1452.74 237.24   Q 1450.96 235.75 1428.62 215.45   Q 1424.11 211.35 1418.47 207.07   Q 1413.83 203.55 1408.28 198.74   Q 1397.29 189.21 1380.12 173.15   C 1370.33 163.99 1361.47 156.10 1350.46 148.83   Q 1333.93 137.91 1314.21 127.09   Q 1304.34 121.67 1295.47 118.24   Q 1283.26 113.52 1275.89 111.18   Q 1257.79 105.46 1234.19 99.81   Q 1221.65 96.80 1209.55 95.34   Q 1182.88 92.11 1147.00 89.16   Q 1118.87 86.85 1113.08 86.62   C 1106.00 86.34 1100.67 86.57 1095.03 86.22   C 1086.64 85.71 1076.23 86.35 1068.82 86.38   Q 1063.84 86.40 1056.17 86.83   Q 1023.83 88.64 990.65 94.12   Q 988.88 94.41 988.58 94.41   A 1.54 0.14 1.2 0 0 987.43 94.49   Q 985.73 95.13 982.65 95.49   Q 981.58 95.62 978.03 96.29   Q 953.53 100.92 929.13 107.58   Q 921.73 106.02 913.75 105.61   Q 890.91 104.44 868.12 106.94   C 869.06 106.17 870.08 106.06 870.96 105.31   Q 876.96 100.21 879.48 99.08   Q 895.21 92.01 914.50 84.50   Q 921.37 81.82 927.20 80.73   Q 946.15 77.18 949.76 76.47   Q 996.14 67.23 1043.62 63.09   Q 1053.38 62.23 1061.96 62.57   Q 1075.78 63.11 1088.00 63.50   Q 1088.02 63.50 1088.97 63.74   Q 1089.59 63.91 1089.92 63.91   Q 1096.83 63.93 1107.25 63.91   Q 1107.67 63.91 1108.58 64.26   A 2.97 2.89 -33.9 0 0 1109.62 64.45   L 1125.74 64.45   A 0.45 0.33 -27.3 0 1 1125.87 64.47   Q 1128.18 64.93 1129.00 64.94   C 1136.79 65.00 1139.90 64.79 1146.99 65.43   C 1151.10 65.81 1156.69 65.29 1161.82 65.82   Q 1163.65 66.01 1166.00 66.08   Q 1196.42 66.91 1220.50 69.08   Q 1224.39 69.43 1230.89 71.09   Q 1267.08 80.31 1304.31 93.43   Q 1315.55 97.39 1324.79 102.19   C 1342.19 111.24 1357.93 120.14 1373.07 131.00   Q 1378.30 134.75 1386.73 141.97   C 1394.52 148.65 1407.23 159.62 1418.23 168.60   Q 1441.29 187.45 1463.90 207.64   C 1467.12 210.52 1469.83 213.72 1472.80 216.05   C 1476.57 219.01 1480.62 223.86 1485.22 227.77   Q 1486.10 228.52 1492.43 234.87   Q 1493.90 236.34 1499.91 241.85   Q 1506.39 247.79 1510.57 252.47   Q 1515.98 258.54 1518.20 260.63   Q 1521.57 263.82 1523.10 266.05   C 1524.43 267.98 1527.87 270.60 1529.87 273.26   Q 1530.89 274.62 1533.51 277.10   Q 1534.91 278.43 1538.20 282.24   C 1539.80 284.10 1542.75 286.28 1544.13 288.69   A 3.13 2.93 9.4 0 0 1544.62 289.33   L 1554.25 298.96   A 1.74 1.52 -86.2 0 1 1554.51 299.30   Q 1555.28 300.56 1555.73 301.02   Q 1564.13 309.57 1565.86 310.87   Q 1566.57 311.41 1566.66 311.47   A 2.43 1.21 75.8 0 1 1567.27 312.18   L 1572.95 321.50   Z"></path>
  <path fill="#ff9501" d="   M 1539.53 323.88   Q 1464.29 328.72 1388.95 332.01   C 1383.07 332.27 1375.07 332.37 1371.18 332.16   A 1.84 1.83 84.2 0 1 1369.50 330.79   Q 1368.92 328.57 1368.82 327.22   Q 1368.09 316.97 1366.50 305.51   Q 1366.17 303.08 1365.40 301.53   A 3.19 3.19 0.0 0 0 1362.12 299.78   Q 1342.73 302.36 1332.19 303.65   Q 1321.28 304.99 1302.34 308.09   Q 1256.73 315.55 1207.23 322.40   Q 1191.59 324.57 1177.97 326.06   A 0.85 0.83 69.1 0 1 1177.18 325.70   Q 1175.79 323.63 1174.90 321.82   Q 1166.01 303.76 1160.20 293.01   Q 1158.31 289.51 1154.73 284.04   C 1143.31 266.57 1128.93 244.82 1114.78 226.77   Q 1094.84 201.34 1092.48 198.47   C 1085.59 190.08 1076.33 181.75 1070.38 175.04   Q 1065.59 169.64 1062.29 166.96   C 1050.71 157.56 1038.01 149.54 1024.67 141.84   Q 1008.15 132.30 989.17 124.81   Q 978.90 120.76 959.99 115.73   Q 944.64 111.65 929.13 107.58   Q 953.53 100.92 978.03 96.29   Q 981.58 95.62 982.65 95.49   Q 985.73 95.13 987.43 94.49   A 1.54 0.14 1.2 0 1 988.58 94.41   Q 988.88 94.41 990.65 94.12   Q 1023.83 88.64 1056.17 86.83   Q 1063.84 86.40 1068.82 86.38   C 1076.23 86.35 1086.64 85.71 1095.03 86.22   C 1100.67 86.57 1106.00 86.34 1113.08 86.62   Q 1118.87 86.85 1147.00 89.16   Q 1182.88 92.11 1209.55 95.34   Q 1221.65 96.80 1234.19 99.81   Q 1257.79 105.46 1275.89 111.18   Q 1283.26 113.52 1295.47 118.24   Q 1304.34 121.67 1314.21 127.09   Q 1333.93 137.91 1350.46 148.83   C 1361.47 156.10 1370.33 163.99 1380.12 173.15   Q 1397.29 189.21 1408.28 198.74   Q 1413.83 203.55 1418.47 207.07   Q 1424.11 211.35 1428.62 215.45   Q 1450.96 235.75 1452.74 237.24   Q 1453.27 237.68 1454.83 239.20   Q 1455.72 240.07 1458.60 242.65   Q 1463.85 247.36 1468.67 252.59   Q 1474.45 258.86 1479.57 264.02   Q 1496.65 281.22 1500.30 284.52   Q 1503.10 287.07 1512.50 295.99   Q 1520.92 303.98 1529.83 313.16   Q 1530.22 313.57 1530.68 314.29   C 1531.06 314.87 1531.74 315.04 1532.31 315.69   Q 1535.89 319.81 1539.53 323.88   Z"></path>
  <path fill="#272c96" d="   M 929.13 107.58   Q 944.64 111.65 959.99 115.73   Q 978.90 120.76 989.17 124.81   Q 1008.15 132.30 1024.67 141.84   C 1038.01 149.54 1050.71 157.56 1062.29 166.96   Q 1065.59 169.64 1070.38 175.04   C 1076.33 181.75 1085.59 190.08 1092.48 198.47   Q 1094.84 201.34 1114.78 226.77   C 1128.93 244.82 1143.31 266.57 1154.73 284.04   Q 1158.31 289.51 1160.20 293.01   Q 1166.01 303.76 1174.90 321.82   Q 1175.79 323.63 1177.18 325.70   A 0.85 0.83 69.1 0 0 1177.97 326.06   Q 1191.59 324.57 1207.23 322.40   Q 1256.73 315.55 1302.34 308.09   Q 1321.28 304.99 1332.19 303.65   Q 1342.73 302.36 1362.12 299.78   A 3.19 3.19 0.0 0 1 1365.40 301.53   Q 1366.17 303.08 1366.50 305.51   Q 1368.09 316.97 1368.82 327.22   Q 1368.92 328.57 1369.50 330.79   A 1.84 1.83 84.2 0 0 1371.18 332.16   C 1375.07 332.37 1383.07 332.27 1388.95 332.01   Q 1464.29 328.72 1539.53 323.88   L 1572.95 321.50   Q 1574.11 320.82 1575.81 321.22   A 1.66 1.62 36.9 0 0 1576.98 321.07   Q 1577.18 320.95 1577.25 320.92   A 3.21 3.15 33.0 0 1 1578.73 320.62   Q 1582.33 320.78 1584.88 320.63   Q 1585.28 320.61 1585.69 320.32   A 0.93 0.85 23.2 0 1 1586.12 320.17   L 1626.55 317.65   Q 1626.56 317.65 1626.57 317.65   Q 1630.07 316.95 1633.09 317.19   A 4.19 4.08 -49.0 0 0 1634.30 317.09   C 1637.62 316.32 1640.65 316.84 1643.92 316.29   Q 1646.64 315.84 1649.64 316.14   A 2.56 2.44 37.9 0 0 1650.63 316.04   C 1653.84 315.03 1657.49 315.70 1661.09 315.06   Q 1663.59 314.62 1667.66 314.88   A 2.04 1.98 32.8 0 0 1668.66 314.68   Q 1668.82 314.60 1668.90 314.55   A 2.14 2.12 -58.8 0 1 1669.90 314.30   Q 1675.28 314.38 1675.78 314.27   Q 1678.45 313.70 1681.23 313.70   C 1685.33 313.71 1690.84 312.42 1694.45 313.37   Q 1698.80 314.51 1699.63 319.10   Q 1700.54 324.18 1700.59 327.99   A 1.62 1.62 0.0 0 0 1700.84 328.82   Q 1701.24 329.45 1701.15 330.02   Q 1700.71 332.97 1701.59 335.55   A 1.69 1.44 -62.2 0 1 1701.68 335.95   Q 1705.99 380.63 1710.53 416.71   Q 1711.88 427.40 1712.89 432.14   Q 1713.47 434.89 1715.77 437.01   A 2.06 2.03 65.3 0 0 1717.20 437.55   Q 1724.04 437.42 1726.00 437.39   C 1726.77 437.37 1727.43 436.83 1728.28 436.84   Q 1730.46 436.88 1738.11 436.89   A 1.70 1.68 29.2 0 0 1738.98 436.65   Q 1739.93 436.08 1740.76 436.18   Q 1744.93 436.66 1748.95 436.14   C 1752.46 435.70 1756.09 435.73 1758.56 435.87   A 4.51 4.43 -50.5 0 0 1759.98 435.72   C 1763.76 434.70 1768.06 435.46 1772.22 434.70   C 1774.96 434.19 1778.92 434.83 1782.57 434.21   C 1785.83 433.66 1789.72 434.61 1793.52 433.48   A 1.97 1.94 -42.6 0 1 1794.74 433.52   Q 1796.21 434.06 1797.85 434.03   A 2.34 2.28 56.6 0 1 1798.81 434.24   Q 1802.32 435.90 1802.79 437.70   Q 1806.04 450.05 1809.75 462.31   C 1811.07 466.66 1812.17 471.63 1813.47 476.04   Q 1817.99 491.33 1823.67 511.56   Q 1830.81 536.99 1840.23 569.84   A 0.89 0.81 42.5 0 1 1840.26 570.18   C 1840.09 571.51 1840.88 572.33 1841.23 573.56   Q 1855.81 624.77 1858.08 632.76   Q 1858.15 633.01 1858.13 633.11   Q 1858.10 633.30 1858.14 633.43   Q 1862.89 649.44 1865.83 659.94   Q 1866.27 661.48 1867.08 664.32   Q 1877.29 699.97 1883.58 722.24   Q 1885.09 727.62 1902.42 789.20   A 0.85 0.85 0.0 0 1 1902.13 790.09   L 1631.17 1001.22   L 1614.31 1013.70   C 1589.97 1032.74 1565.55 1052.92 1541.64 1071.14   Q 1522.97 1085.36 1502.18 1101.26   Q 1478.70 1119.20 1469.33 1126.81   Q 1453.52 1139.64 1436.85 1152.84   Q 1431.39 1157.17 1426.48 1159.86   Q 1422.56 1162.00 1410.01 1167.81   Q 1409.96 1167.83 1409.91 1167.85   L 1407.11 1168.65   Q 1406.58 1168.46 1406.00 1168.68   Q 1377.19 1179.59 1347.64 1188.29   Q 1347.11 1188.44 1346.64 1188.67   C 1339.82 1190.31 1331.20 1193.00 1326.39 1194.32   Q 1251.46 1214.98 1174.82 1227.97   Q 1172.90 1228.30 1171.06 1229.08   L 1147.71 1232.06   L 1137.10 1232.36   A 2.18 2.07 -33.3 0 1 1136.26 1232.21   L 651.00 1035.59   L 619.54 1022.74   Q 619.21 1022.45 618.72 1022.52   Q 616.97 1022.43 616.72 1021.67   L 607.81 1018.09   Q 607.79 1018.33 607.19 1018.09   Q 550.03 994.78 483.16 967.18   Q 481.45 966.47 480.41 964.85   Q 479.75 963.82 479.52 961.95   Q 479.24 959.58 479.24 959.55   Q 476.97 944.16 470.44 897.75   Q 464.33 854.24 458.39 811.23   A 0.35 0.06 58.3 0 0 458.31 811.04   Q 458.30 811.02 458.28 810.99   A 0.39 0.24 -76.7 0 1 458.25 810.90   Q 451.39 761.71 451.06 759.38   Q 451.05 759.36 450.69 757.70   C 450.46 756.64 450.70 755.61 450.48 754.28   Q 448.28 741.15 446.54 727.17   Q 446.39 725.96 446.00 724.89   C 445.68 724.02 445.94 722.94 445.78 721.79   Q 431.85 622.58 426.82 587.00   Q 426.71 586.27 426.50 585.61   C 426.24 584.80 426.55 584.01 426.42 583.13   Q 425.17 575.06 422.99 559.49   Q 420.38 540.87 417.73 522.50   Q 417.71 522.38 417.78 521.82   Q 417.83 521.42 417.76 521.17   C 416.93 518.20 416.72 514.20 416.29 511.27   Q 413.04 489.15 412.25 483.49   Q 412.00 481.68 412.01 481.00   A 1.33 0.09 -88.3 0 0 411.97 480.01   Q 411.54 478.32 409.49 463.03   Q 409.47 462.91 409.36 462.68   Q 409.25 462.43 409.24 462.31   Q 408.53 455.23 407.02 446.35   C 406.77 444.84 407.19 443.33 406.62 442.23   A 1.03 0.97 -63.8 0 1 406.50 441.84   Q 405.41 434.03 403.45 421.19   Q 403.28 420.03 403.43 419.43   Q 403.63 418.63 403.15 417.94   A 1.28 1.28 0.0 0 1 402.94 417.39   Q 401.64 407.14 401.53 406.05   Q 401.46 405.31 401.13 405.03   Q 400.83 404.77 400.78 404.36   Q 400.72 403.85 400.86 403.62   Q 401.68 402.15 402.67 399.79   A 4.29 4.27 79.5 0 1 403.64 398.37   Q 408.27 393.89 414.76 393.22   Q 438.43 390.79 483.94 385.77   Q 517.57 382.06 551.06 378.55   Q 556.63 377.97 562.15 377.34   Q 563.62 378.06 564.09 377.09   Q 565.60 376.83 566.98 377.09   L 603.38 373.09   L 711.98 361.65   A 0.39 0.39 0.0 0 0 712.19 360.97   Q 698.68 349.76 685.84 337.57   Q 675.72 327.95 672.05 324.52   Q 663.03 316.07 654.54 307.87   L 636.11 288.00   Q 619.51 266.61 605.09 243.98   Q 598.59 233.77 596.06 227.49   Q 594.96 224.75 594.02 221.87   A 2.19 2.04 37.7 0 1 593.91 221.20   L 593.91 215.64   A 1.41 1.39 57.7 0 1 594.04 215.05   Q 595.75 211.37 596.30 210.80   Q 602.17 204.69 609.57 200.85   Q 620.14 195.39 631.43 190.86   Q 631.45 190.85 696.72 164.34   Q 701.56 162.37 706.45 160.34   Q 742.63 145.36 763.91 137.45   Q 773.06 134.05 782.22 130.68   Q 800.67 123.88 817.77 118.57   Q 840.54 111.49 863.93 107.27   Q 865.10 107.71 866.04 107.13   Q 867.33 106.79 868.12 106.94   Q 890.91 104.44 913.75 105.61   Q 921.73 106.02 929.13 107.58   Z   M 842.15 142.51   Q 835.45 142.55 827.81 144.82   Q 810.44 149.98 800.74 153.73   Q 783.68 160.32 769.41 166.70   Q 725.93 186.13 686.49 200.01   Q 668.01 206.51 640.60 218.56   Q 640.23 218.73 631.16 223.84   C 628.74 225.20 627.17 227.26 629.04 229.76   Q 632.25 234.07 642.58 245.23   Q 649.93 253.19 681.48 285.57   C 686.42 290.64 693.25 297.53 698.88 302.28   C 712.01 313.35 729.41 329.37 743.85 340.39   Q 777.64 366.18 816.53 383.70   Q 831.91 390.64 848.27 395.68   Q 853.10 397.17 858.48 398.13   Q 872.19 400.92 889.00 402.20   Q 925.98 405.04 960.68 402.27   Q 973.04 401.28 994.88 398.10   Q 1021.09 394.27 1028.97 393.11   Q 1040.01 391.47 1050.52 389.92   Q 1059.56 389.40 1068.06 388.36   Q 1084.19 386.41 1100.00 391.24   C 1113.12 395.25 1124.71 402.56 1134.58 411.99   Q 1140.84 417.97 1144.46 423.53   Q 1162.04 450.49 1179.96 477.24   Q 1187.23 488.91 1195.08 500.19   Q 1198.95 505.75 1200.94 507.82   Q 1202.61 509.55 1205.16 509.39   A 1.96 1.94 25.0 0 0 1206.14 509.04   C 1211.30 505.33 1208.82 497.54 1206.14 492.86   C 1200.24 482.57 1196.03 473.33 1191.08 463.70   Q 1185.31 452.48 1169.47 421.57   Q 1158.52 400.20 1152.97 387.54   Q 1145.41 370.31 1137.61 349.92   Q 1128.97 327.30 1122.67 314.04   Q 1106.50 280.01 1087.19 250.05   C 1075.84 232.45 1064.69 221.71 1048.15 204.60   Q 1038.97 195.11 1026.79 186.77   C 1013.84 177.91 1000.56 168.41 994.27 164.48   Q 978.36 154.55 959.78 148.74   C 930.80 139.67 899.90 137.03 869.45 138.94   Q 856.70 139.74 855.66 139.84   Q 848.36 140.59 842.15 142.51   Z   M 1388.21 484.83   L 1436.74 480.61   A 2.61 2.61 0.0 0 1 1439.57 483.02   L 1440.06 489.77   Q 1441.81 516.17 1443.74 542.50   Q 1453.48 675.46 1463.45 788.50   Q 1465.28 809.26 1467.68 829.96   Q 1468.42 836.35 1473.89 839.34   Q 1476.39 840.70 1477.91 840.16   Q 1534.25 834.51 1589.01 829.16   C 1594.47 828.62 1593.77 823.49 1593.62 819.55   Q 1591.16 753.04 1588.35 682.92   C 1587.04 650.26 1584.83 617.99 1583.27 580.25   C 1582.10 552.09 1578.85 510.78 1578.83 481.59   C 1578.82 472.86 1584.21 473.40 1591.83 472.93   Q 1630.57 470.53 1661.50 469.01   C 1668.06 468.68 1668.64 462.84 1668.20 457.75   Q 1667.62 451.14 1665.25 433.74   Q 1660.29 397.50 1655.17 361.17   C 1655.25 352.83 1652.15 351.51 1644.37 352.12   Q 1582.60 356.98 1551.25 358.97   Q 1480.13 363.48 1391.26 369.30   Q 1383.10 369.83 1366.19 371.06   C 1359.12 371.57 1353.73 372.69 1354.70 380.75   Q 1359.92 424.25 1367.92 478.76   C 1368.47 482.50 1370.84 483.96 1374.33 485.12   A 4.11 3.85 -31.6 0 0 1375.26 485.31   Q 1381.74 485.80 1388.21 484.83   Z   M 1240.97 592.06   Q 1238.13 589.78 1236.40 587.84   C 1231.83 582.72 1224.24 573.92 1217.47 567.44   Q 1185.85 537.14 1167.11 517.39   Q 1146.94 496.14 1126.59 475.10   Q 1123.09 470.75 1117.72 468.76   Q 1108.33 465.29 1097.25 465.54   Q 1089.88 465.71 1085.77 466.35   C 1061.20 470.20 1029.08 473.98 1013.48 475.92   C 1005.98 476.85 1004.21 480.21 1004.96 487.36   Q 1008.77 523.45 1017.23 589.51   Q 1019.44 606.77 1028.92 680.60   C 1034.41 723.35 1038.01 756.11 1043.09 800.38   Q 1048.28 845.51 1054.71 888.25   C 1055.09 890.81 1055.34 893.75 1057.28 895.45   Q 1059.56 897.45 1062.74 896.99   Q 1108.80 890.63 1154.22 885.17   Q 1162.99 884.12 1162.12 875.28   Q 1160.16 855.34 1156.42 825.52   Q 1145.34 737.06 1144.92 733.62   C 1142.79 716.18 1140.29 695.88 1140.57 678.49   C 1140.60 676.65 1141.27 675.29 1143.05 674.80   C 1148.63 673.26 1150.40 675.94 1153.99 680.26   Q 1158.95 686.23 1165.60 693.92   Q 1237.39 776.99 1314.70 864.18   C 1316.75 866.50 1317.70 866.74 1320.72 866.32   Q 1349.82 862.26 1371.51 858.22   Q 1377.11 857.17 1379.50 856.23   Q 1385.65 853.79 1384.86 846.27   Q 1375.44 756.12 1364.36 667.99   Q 1348.47 541.58 1336.99 449.25   Q 1333.63 422.19 1327.63 368.39   Q 1328.15 364.23 1327.20 358.91   Q 1326.43 354.62 1322.45 353.36   C 1318.89 352.23 1311.35 353.11 1307.50 353.64   Q 1284.66 356.75 1277.42 357.65   Q 1261.18 359.67 1248.27 361.90   Q 1223.16 366.25 1219.16 366.64   C 1215.62 366.99 1214.01 369.07 1214.49 372.52   Q 1219.60 409.59 1229.26 480.25   C 1234.93 521.66 1239.98 557.36 1243.98 590.31   Q 1244.18 591.94 1240.97 592.06   Z   M 448.79 434.13   Q 443.69 437.12 443.94 443.02   Q 444.21 449.47 447.20 470.77   Q 469.50 629.85 470.83 639.19   C 485.05 738.61 496.59 837.25 512.21 939.76   C 512.78 943.49 517.65 944.99 520.72 945.31   Q 527.89 946.07 534.75 945.73   Q 568.39 942.47 601.81 938.24   Q 610.21 937.18 612.92 936.68   C 618.57 935.64 619.78 933.59 619.33 928.00   Q 611.86 835.02 608.74 795.00   Q 605.68 755.77 603.65 722.00   A 1.10 1.09 -4.9 0 1 604.63 720.84   Q 659.81 715.16 708.28 708.89   C 716.76 707.79 716.73 704.74 715.57 697.24   Q 709.35 657.01 704.65 628.87   Q 704.23 626.36 703.59 623.51   A 2.34 2.31 -71.2 0 0 703.13 622.56   Q 700.72 619.45 697.23 619.90   C 669.17 623.49 633.85 628.66 602.08 632.02   C 595.66 632.70 591.60 632.48 590.80 625.19   Q 585.53 576.78 581.07 538.97   C 580.80 536.66 581.32 534.94 583.66 534.38   Q 591.50 532.51 604.49 530.22   Q 622.11 527.13 694.27 515.56   Q 704.37 513.94 711.53 512.30   C 717.32 510.98 717.97 506.60 716.85 501.28   Q 716.30 498.66 703.04 406.53   Q 701.90 398.61 694.12 399.59   Q 588.83 412.91 460.44 431.58   Q 456.72 432.12 452.95 432.69   Q 451.38 432.93 448.79 434.13   Z   M 767.65 492.19   Q 762.25 538.12 760.14 558.69   Q 752.53 633.00 751.83 640.04   Q 737.95 779.63 724.36 920.59   A 2.04 2.03 13.2 0 0 725.68 922.70   L 738.73 927.54   Q 739.53 927.74 739.75 927.72   Q 765.38 924.84 796.09 920.97   C 801.64 920.27 806.20 919.00 807.22 913.47   Q 817.77 856.44 821.55 835.26   Q 822.90 827.69 826.17 804.89   Q 826.81 800.50 830.46 799.89   Q 859.74 795.00 890.91 790.09   A 0.90 0.90 0.0 0 1 891.90 790.68   L 894.59 798.29   Q 913.73 847.47 932.17 896.93   Q 934.35 902.77 934.72 903.34   C 937.85 908.18 945.00 908.56 950.14 907.43   Q 981.68 902.77 1013.59 899.19   Q 1021.89 898.26 1024.50 896.41   Q 1029.64 892.76 1026.75 884.73   Q 1009.41 836.45 1008.93 835.06   Q 957.19 686.37 915.45 567.04   Q 900.02 522.93 877.42 461.42   Q 875.50 456.20 869.94 456.67   Q 839.11 459.29 801.76 461.84   Q 783.95 463.06 778.01 463.80   C 773.70 464.34 770.48 464.91 769.98 469.72   Q 768.81 480.97 767.65 492.19   Z   M 1625.08 510.41   Q 1623.06 512.24 1623.14 515.56   C 1623.46 530.06 1623.35 543.61 1623.65 557.15   Q 1624.03 574.75 1624.10 584.00   Q 1624.19 595.76 1624.26 606.50   Q 1624.35 621.78 1624.82 637.03   C 1625.21 649.77 1624.86 661.51 1625.39 672.93   C 1625.94 684.68 1625.35 699.04 1625.91 709.20   C 1626.55 720.82 1626.05 734.12 1626.56 744.43   C 1627.00 753.41 1626.69 761.19 1627.06 770.71   Q 1627.25 775.60 1627.46 790.41   Q 1627.62 802.01 1628.12 817.40   C 1628.20 819.91 1628.89 822.79 1631.83 822.64   C 1637.14 821.98 1643.30 820.60 1647.55 819.92   Q 1664.02 817.30 1691.86 812.75   C 1696.60 811.98 1699.89 811.62 1701.10 807.10   Q 1701.83 804.40 1703.12 793.87   Q 1703.85 787.94 1706.99 751.75   Q 1707.82 742.14 1708.49 738.73   Q 1709.28 734.74 1713.70 734.16   Q 1738.73 730.89 1757.66 728.59   A 0.83 0.82 70.5 0 1 1758.47 728.98   L 1762.71 735.93   Q 1775.39 760.99 1786.56 786.50   Q 1789.39 792.97 1795.42 794.33   Q 1801.20 795.64 1808.54 793.87   Q 1831.85 790.63 1855.05 786.73   Q 1857.06 786.39 1857.78 784.88   Q 1858.29 783.80 1857.97 782.57   Q 1856.08 775.42 1851.03 758.45   Q 1841.01 724.74 1819.20 655.26   Q 1795.13 578.54 1771.18 502.49   Q 1769.73 496.36 1767.45 492.05   Q 1764.07 485.66 1758.54 486.90   Q 1755.19 486.32 1751.13 487.12   C 1713.97 494.40 1671.92 500.33 1632.20 506.39   Q 1627.45 507.12 1625.08 510.41   Z"></path>
  <path fill="#cbc8e6" d="   M 866.04 107.13   Q 865.10 107.71 863.93 107.27   Q 864.84 106.88 866.04 107.13   Z"></path>
  <path fill="#24c034" d="   M 1179.96 477.24   Q 1180.28 476.10 1180.05 475.50   C 1171.13 452.09 1158.75 430.62 1143.18 411.08   Q 1140.95 408.28 1137.19 404.14   C 1121.46 386.83 1101.28 375.21 1077.07 380.81   Q 1069.96 382.45 1050.52 389.92   Q 1040.01 391.47 1028.97 393.11   Q 1021.09 394.27 994.88 398.10   Q 973.04 401.28 960.68 402.27   Q 925.98 405.04 889.00 402.20   Q 872.19 400.92 858.48 398.13   Q 831.76 382.55 823.98 377.76   Q 797.78 361.60 774.37 343.88   Q 761.08 333.83 743.34 319.88   Q 728.15 307.94 717.01 297.45   Q 695.43 277.10 691.76 273.59   Q 676.77 259.24 662.38 243.11   Q 662.34 243.07 658.46 238.55   Q 654.58 234.03 652.18 229.73   A 1.06 1.05 60.2 0 1 652.56 228.30   Q 671.35 217.15 691.63 208.13   Q 717.42 196.65 733.72 189.33   Q 746.27 183.70 776.06 171.14   Q 809.01 157.26 842.15 142.51   Q 848.36 140.59 855.66 139.84   Q 856.70 139.74 869.45 138.94   C 899.90 137.03 930.80 139.67 959.78 148.74   Q 978.36 154.55 994.27 164.48   C 1000.56 168.41 1013.84 177.91 1026.79 186.77   Q 1038.97 195.11 1048.15 204.60   C 1064.69 221.71 1075.84 232.45 1087.19 250.05   Q 1106.50 280.01 1122.67 314.04   Q 1128.97 327.30 1137.61 349.92   Q 1145.41 370.31 1152.97 387.54   Q 1158.52 400.20 1169.47 421.57   Q 1185.31 452.48 1191.08 463.70   C 1196.03 473.33 1200.24 482.57 1206.14 492.86   C 1208.82 497.54 1211.30 505.33 1206.14 509.04   A 1.96 1.94 25.0 0 1 1205.16 509.39   Q 1202.61 509.55 1200.94 507.82   Q 1198.95 505.75 1195.08 500.19   Q 1187.23 488.91 1179.96 477.24   Z   M 1056.56 345.82   A 0.59 0.59 0.0 0 0 1056.54 344.71   Q 1040.80 339.69 1023.87 335.12   Q 1003.04 329.49 975.45 321.03   Q 945.59 311.88 921.10 301.90   Q 903.24 294.62 888.91 286.81   C 867.89 275.35 850.92 265.86 829.81 258.44   C 819.95 254.98 809.86 252.92 800.55 252.44   Q 788.58 251.82 774.76 252.79   Q 765.41 253.45 742.88 257.14   Q 733.72 258.63 729.59 259.15   A 0.55 0.55 0.0 0 0 729.32 260.12   Q 730.38 260.97 731.99 262.01   C 755.33 277.09 778.98 290.71 805.84 306.49   C 813.37 310.92 822.61 317.04 827.76 320.53   Q 858.72 341.45 859.93 342.30   Q 863.90 345.06 872.48 349.98   Q 890.27 360.17 910.16 363.73   C 923.23 366.06 938.69 366.18 951.24 364.90   Q 990.31 360.94 1038.18 350.91   Q 1047.96 348.86 1056.56 345.82   Z"></path>
  <path fill="#38973b" d="   M 842.15 142.51   Q 809.01 157.26 776.06 171.14   Q 746.27 183.70 733.72 189.33   Q 717.42 196.65 691.63 208.13   Q 671.35 217.15 652.56 228.30   A 1.06 1.05 60.2 0 0 652.18 229.73   Q 654.58 234.03 658.46 238.55   Q 662.34 243.07 662.38 243.11   Q 676.77 259.24 691.76 273.59   Q 695.43 277.10 717.01 297.45   Q 728.15 307.94 743.34 319.88   Q 761.08 333.83 774.37 343.88   Q 797.78 361.60 823.98 377.76   Q 831.76 382.55 858.48 398.13   Q 853.10 397.17 848.27 395.68   Q 831.91 390.64 816.53 383.70   Q 777.64 366.18 743.85 340.39   C 729.41 329.37 712.01 313.35 698.88 302.28   C 693.25 297.53 686.42 290.64 681.48 285.57   Q 649.93 253.19 642.58 245.23   Q 632.25 234.07 629.04 229.76   C 627.17 227.26 628.74 225.20 631.16 223.84   Q 640.23 218.73 640.60 218.56   Q 668.01 206.51 686.49 200.01   Q 725.93 186.13 769.41 166.70   Q 783.68 160.32 800.74 153.73   Q 810.44 149.98 827.81 144.82   Q 835.45 142.55 842.15 142.51   Z"></path>
  <path fill="#38973b" d="   M 1056.56 345.82   Q 1047.96 348.86 1038.18 350.91   Q 990.31 360.94 951.24 364.90   C 938.69 366.18 923.23 366.06 910.16 363.73   Q 890.27 360.17 872.48 349.98   Q 863.90 345.06 859.93 342.30   Q 858.72 341.45 827.76 320.53   C 822.61 317.04 813.37 310.92 805.84 306.49   C 778.98 290.71 755.33 277.09 731.99 262.01   Q 730.38 260.97 729.32 260.12   A 0.55 0.55 0.0 0 1 729.59 259.15   Q 733.72 258.63 742.88 257.14   Q 765.41 253.45 774.76 252.79   Q 788.58 251.82 800.55 252.44   C 809.86 252.92 819.95 254.98 829.81 258.44   C 850.92 265.86 867.89 275.35 888.91 286.81   Q 903.24 294.62 921.10 301.90   Q 945.59 311.88 975.45 321.03   Q 1003.04 329.49 1023.87 335.12   Q 1040.80 339.69 1056.54 344.71   A 0.59 0.59 0.0 0 1 1056.56 345.82   Z"></path>
  <path fill="#ffffff" d="   M 654.54 307.87   L 603.38 373.09   L 566.98 377.09   Q 588.99 347.60 596.78 337.78   Q 616.44 312.98 636.11 288.00   L 654.54 307.87   Z"></path>
  <path fill="#ff9501" d="   M 603.38 373.09   L 654.54 307.87   Q 663.03 316.07 672.05 324.52   Q 675.72 327.95 685.84 337.57   Q 698.68 349.76 712.19 360.97   A 0.39 0.39 0.0 0 1 711.98 361.65   L 603.38 373.09   Z"></path>
  <path fill="#cbc8e6" d="   M 1655.17 361.17   Q 1653.67 360.29 1651.78 360.44   Q 1488.71 372.81 1484.00 373.14   Q 1434.86 376.53 1380.25 380.71   Q 1377.69 380.91 1375.53 381.40   A 2.98 2.97 -3.8 0 0 1373.23 384.02   Q 1373.13 385.11 1373.43 387.27   Q 1385.35 472.03 1386.90 483.03   Q 1387.12 484.53 1388.21 484.83   Q 1381.74 485.80 1375.26 485.31   A 4.11 3.85 -31.6 0 1 1374.33 485.12   C 1370.84 483.96 1368.47 482.50 1367.92 478.76   Q 1359.92 424.25 1354.70 380.75   C 1353.73 372.69 1359.12 371.57 1366.19 371.06   Q 1383.10 369.83 1391.26 369.30   Q 1480.13 363.48 1551.25 358.97   Q 1582.60 356.98 1644.37 352.12   C 1652.15 351.51 1655.25 352.83 1655.17 361.17   Z"></path>
  <path fill="#cbc8e6" d="   M 1327.63 368.39   L 1232.15 374.82   A 0.55 0.54 -5.0 0 0 1231.64 375.42   L 1255.02 600.36   A 0.40 0.40 0.0 0 1 1254.40 600.74   L 1240.97 592.06   Q 1244.18 591.94 1243.98 590.31   C 1239.98 557.36 1234.93 521.66 1229.26 480.25   Q 1219.60 409.59 1214.49 372.52   C 1214.01 369.07 1215.62 366.99 1219.16 366.64   Q 1223.16 366.25 1248.27 361.90   Q 1261.18 359.67 1277.42 357.65   Q 1284.66 356.75 1307.50 353.64   C 1311.35 353.11 1318.89 352.23 1322.45 353.36   Q 1326.43 354.62 1327.20 358.91   Q 1328.15 364.23 1327.63 368.39   Z"></path>
  <path fill="#ffffff" d="   M 1655.17 361.17   Q 1660.29 397.50 1665.25 433.74   Q 1667.62 451.14 1668.20 457.75   C 1668.64 462.84 1668.06 468.68 1661.50 469.01   Q 1630.57 470.53 1591.83 472.93   C 1584.21 473.40 1578.82 472.86 1578.83 481.59   C 1578.85 510.78 1582.10 552.09 1583.27 580.25   C 1584.83 617.99 1587.04 650.26 1588.35 682.92   Q 1591.16 753.04 1593.62 819.55   C 1593.77 823.49 1594.47 828.62 1589.01 829.16   Q 1534.25 834.51 1477.91 840.16   L 1453.60 488.53   A 0.68 0.67 -6.0 0 0 1452.83 487.91   L 1440.06 489.77   L 1439.57 483.02   A 2.61 2.61 0.0 0 0 1436.74 480.61   L 1388.21 484.83   Q 1387.12 484.53 1386.90 483.03   Q 1385.35 472.03 1373.43 387.27   Q 1373.13 385.11 1373.23 384.02   A 2.98 2.97 -3.8 0 1 1375.53 381.40   Q 1377.69 380.91 1380.25 380.71   Q 1434.86 376.53 1484.00 373.14   Q 1488.71 372.81 1651.78 360.44   Q 1653.67 360.29 1655.17 361.17   Z"></path>
  <path fill="#ffffff" d="   M 1327.63 368.39   Q 1333.63 422.19 1336.99 449.25   Q 1348.47 541.58 1364.36 667.99   Q 1375.44 756.12 1384.86 846.27   Q 1385.65 853.79 1379.50 856.23   Q 1377.11 857.17 1371.51 858.22   Q 1349.82 862.26 1320.72 866.32   C 1317.70 866.74 1316.75 866.50 1314.70 864.18   Q 1237.39 776.99 1165.60 693.92   Q 1158.95 686.23 1153.99 680.26   C 1150.40 675.94 1148.63 673.26 1143.05 674.80   C 1141.27 675.29 1140.60 676.65 1140.57 678.49   C 1140.29 695.88 1142.79 716.18 1144.92 733.62   Q 1145.34 737.06 1156.42 825.52   Q 1160.16 855.34 1162.12 875.28   Q 1162.99 884.12 1154.22 885.17   Q 1108.80 890.63 1062.74 896.99   Q 1056.67 841.79 1047.73 772.02   Q 1038.15 697.27 1023.77 574.50   Q 1020.47 546.31 1017.80 521.24   Q 1016.56 509.59 1015.45 495.99   Q 1015.19 492.83 1015.32 490.67   A 0.89 0.88 -2.0 0 1 1016.08 489.86   Q 1066.92 482.90 1121.39 475.35   Q 1122.78 475.16 1126.59 475.10   Q 1146.94 496.14 1167.11 517.39   Q 1185.85 537.14 1217.47 567.44   C 1224.24 573.92 1231.83 582.72 1236.40 587.84   Q 1238.13 589.78 1240.97 592.06   L 1254.40 600.74   A 0.40 0.40 0.0 0 0 1255.02 600.36   L 1231.64 375.42   A 0.55 0.54 -5.0 0 1 1232.15 374.82   L 1327.63 368.39   Z"></path>
  <path fill="#cbc8e6" d="   M 564.09 377.09   Q 563.62 378.06 562.15 377.34   Q 562.94 376.80 564.09 377.09   Z"></path>
  <path fill="#38973b" d="   M 1179.96 477.24   Q 1162.04 450.49 1144.46 423.53   Q 1140.84 417.97 1134.58 411.99   C 1124.71 402.56 1113.12 395.25 1100.00 391.24   Q 1084.19 386.41 1068.06 388.36   Q 1059.56 389.40 1050.52 389.92   Q 1069.96 382.45 1077.07 380.81   C 1101.28 375.21 1121.46 386.83 1137.19 404.14   Q 1140.95 408.28 1143.18 411.08   C 1158.75 430.62 1171.13 452.09 1180.05 475.50   Q 1180.28 476.10 1179.96 477.24   Z"></path>
  <path fill="#ffffff" d="   M 534.75 945.73   Q 533.90 945.70 533.33 944.84   A 0.62 0.40 -77.8 0 1 533.27 944.68   Q 526.21 904.94 518.39 858.08   Q 492.36 701.94 473.09 582.93   Q 463.58 524.16 454.85 474.93   Q 453.35 466.42 448.79 434.13   Q 451.38 432.93 452.95 432.69   Q 456.72 432.12 460.44 431.58   Q 588.83 412.91 694.12 399.59   Q 701.90 398.61 703.04 406.53   Q 716.30 498.66 716.85 501.28   C 717.97 506.60 717.32 510.98 711.53 512.30   Q 704.37 513.94 694.27 515.56   Q 622.11 527.13 604.49 530.22   Q 591.50 532.51 583.66 534.38   C 581.32 534.94 580.80 536.66 581.07 538.97   Q 585.53 576.78 590.80 625.19   C 591.60 632.48 595.66 632.70 602.08 632.02   C 633.85 628.66 669.17 623.49 697.23 619.90   Q 700.72 619.45 703.13 622.56   A 2.34 2.31 -71.2 0 1 703.59 623.51   Q 704.23 626.36 704.65 628.87   Q 709.35 657.01 715.57 697.24   C 716.73 704.74 716.76 707.79 708.28 708.89   Q 659.81 715.16 604.63 720.84   A 1.10 1.09 -4.9 0 0 603.65 722.00   Q 605.68 755.77 608.74 795.00   Q 611.86 835.02 619.33 928.00   C 619.78 933.59 618.57 935.64 612.92 936.68   Q 610.21 937.18 601.81 938.24   Q 568.39 942.47 534.75 945.73   Z"></path>
  <path fill="#cbc8e6" d="   M 448.79 434.13   Q 453.35 466.42 454.85 474.93   Q 463.58 524.16 473.09 582.93   Q 492.36 701.94 518.39 858.08   Q 526.21 904.94 533.27 944.68   A 0.62 0.40 -77.8 0 0 533.33 944.84   Q 533.90 945.70 534.75 945.73   Q 527.89 946.07 520.72 945.31   C 517.65 944.99 512.78 943.49 512.21 939.76   C 496.59 837.25 485.05 738.61 470.83 639.19   Q 469.50 629.85 447.20 470.77   Q 444.21 449.47 443.94 443.02   Q 443.69 437.12 448.79 434.13   Z"></path>
  <path fill="#ffffff" d="   M 950.14 907.43   L 914.42 793.33   A 0.74 0.74 0.0 0 0 913.51 792.84   L 894.59 798.29   L 891.90 790.68   A 0.90 0.90 0.0 0 0 890.91 790.09   Q 859.74 795.00 830.46 799.89   Q 826.81 800.50 826.17 804.89   Q 822.90 827.69 821.55 835.26   Q 817.77 856.44 807.22 913.47   C 806.20 919.00 801.64 920.27 796.09 920.97   Q 765.38 924.84 739.75 927.72   Q 739.53 927.74 738.73 927.54   L 739.42 927.04   A 1.06 1.04 74.4 0 0 739.86 926.24   Q 752.36 741.61 765.23 552.24   Q 766.02 540.67 766.02 539.08   Q 766.06 530.70 766.60 525.90   Q 766.61 525.82 766.94 514.78   Q 766.98 513.49 767.87 504.77   Q 768.50 498.51 767.65 492.19   Q 768.81 480.97 769.98 469.72   C 770.48 464.91 773.70 464.34 778.01 463.80   Q 783.95 463.06 801.76 461.84   Q 839.11 459.29 869.94 456.67   Q 875.50 456.20 877.42 461.42   Q 900.02 522.93 915.45 567.04   Q 957.19 686.37 1008.93 835.06   Q 1009.41 836.45 1026.75 884.73   Q 1029.64 892.76 1024.50 896.41   Q 1021.89 898.26 1013.59 899.19   Q 981.68 902.77 950.14 907.43   Z   M 824.60 719.98   L 831.31 730.71   A 0.69 0.67 67.3 0 0 832.04 731.02   L 881.30 719.84   A 0.71 0.70 -21.0 0 0 881.76 718.81   L 877.79 711.76   Q 877.33 709.68 876.58 707.34   Q 867.72 679.61 859.11 656.63   Q 856.45 649.54 853.65 643.15   C 852.71 641.02 851.88 640.24 849.73 639.83   Q 843.14 638.59 837.39 641.33   C 833.70 643.08 833.53 647.05 833.07 650.76   Q 828.84 685.39 824.60 719.98   Z"></path>
  <path fill="#cbc8e6" d="   M 1126.59 475.10   Q 1122.78 475.16 1121.39 475.35   Q 1066.92 482.90 1016.08 489.86   A 0.89 0.88 -2.0 0 0 1015.32 490.67   Q 1015.19 492.83 1015.45 495.99   Q 1016.56 509.59 1017.80 521.24   Q 1020.47 546.31 1023.77 574.50   Q 1038.15 697.27 1047.73 772.02   Q 1056.67 841.79 1062.74 896.99   Q 1059.56 897.45 1057.28 895.45   C 1055.34 893.75 1055.09 890.81 1054.71 888.25   Q 1048.28 845.51 1043.09 800.38   C 1038.01 756.11 1034.41 723.35 1028.92 680.60   Q 1019.44 606.77 1017.23 589.51   Q 1008.77 523.45 1004.96 487.36   C 1004.21 480.21 1005.98 476.85 1013.48 475.92   C 1029.08 473.98 1061.20 470.20 1085.77 466.35   Q 1089.88 465.71 1097.25 465.54   Q 1108.33 465.29 1117.72 468.76   Q 1123.09 470.75 1126.59 475.10   Z"></path>
  <path fill="#ffffff" d="   M 1758.54 486.90   Q 1749.45 488.40 1741.06 489.99   Q 1722.49 493.49 1702.66 496.78   Q 1701.25 497.02 1699.84 497.20   Q 1690.93 498.39 1681.66 499.98   Q 1680.61 500.16 1679.79 500.33   Q 1675.75 501.14 1668.26 502.04   Q 1661.07 502.90 1656.74 503.68   Q 1646.71 505.49 1635.79 506.68   A 3.16 3.14 -57.7 0 0 1635.05 506.85   Q 1633.07 507.55 1631.02 507.66   A 3.06 2.97 28.7 0 0 1629.80 508.00   L 1625.08 510.41   Q 1627.45 507.12 1632.20 506.39   C 1671.92 500.33 1713.97 494.40 1751.13 487.12   Q 1755.19 486.32 1758.54 486.90   Z"></path>
  <path fill="#cbc8e6" d="   M 1771.18 502.49   Q 1722.04 510.87 1672.74 518.97   Q 1663.63 520.46 1654.26 522.01   Q 1649.09 522.87 1645.94 524.52   A 2.93 2.70 4.6 0 0 1645.16 525.13   C 1641.40 529.31 1641.93 535.65 1641.78 540.97   Q 1637.66 686.21 1637.06 704.57   C 1635.85 741.99 1634.75 779.09 1632.58 817.00   Q 1632.47 818.96 1631.83 822.64   C 1628.89 822.79 1628.20 819.91 1628.12 817.40   Q 1627.62 802.01 1627.46 790.41   Q 1627.25 775.60 1627.06 770.71   C 1626.69 761.19 1627.00 753.41 1626.56 744.43   C 1626.05 734.12 1626.55 720.82 1625.91 709.20   C 1625.35 699.04 1625.94 684.68 1625.39 672.93   C 1624.86 661.51 1625.21 649.77 1624.82 637.03   Q 1624.35 621.78 1624.26 606.50   Q 1624.19 595.76 1624.10 584.00   Q 1624.03 574.75 1623.65 557.15   C 1623.35 543.61 1623.46 530.06 1623.14 515.56   Q 1623.06 512.24 1625.08 510.41   L 1629.80 508.00   A 3.06 2.97 28.7 0 1 1631.02 507.66   Q 1633.07 507.55 1635.05 506.85   A 3.16 3.14 -57.7 0 1 1635.79 506.68   Q 1646.71 505.49 1656.74 503.68   Q 1661.07 502.90 1668.26 502.04   Q 1675.75 501.14 1679.79 500.33   Q 1680.61 500.16 1681.66 499.98   Q 1690.93 498.39 1699.84 497.20   Q 1701.25 497.02 1702.66 496.78   Q 1722.49 493.49 1741.06 489.99   Q 1749.45 488.40 1758.54 486.90   Q 1764.07 485.66 1767.45 492.05   Q 1769.73 496.36 1771.18 502.49   Z"></path>
  <path fill="#cbc8e6" d="   M 1477.91 840.16   Q 1476.39 840.70 1473.89 839.34   Q 1468.42 836.35 1467.68 829.96   Q 1465.28 809.26 1463.45 788.50   Q 1453.48 675.46 1443.74 542.50   Q 1441.81 516.17 1440.06 489.77   L 1452.83 487.91   A 0.68 0.67 -6.0 0 1 1453.60 488.53   L 1477.91 840.16   Z"></path>
  <path fill="#cbc8e6" d="   M 767.65 492.19   Q 768.50 498.51 767.87 504.77   Q 766.98 513.49 766.94 514.78   Q 766.61 525.82 766.60 525.90   Q 766.06 530.70 766.02 539.08   Q 766.02 540.67 765.23 552.24   Q 752.36 741.61 739.86 926.24   A 1.06 1.04 74.4 0 1 739.42 927.04   L 738.73 927.54   L 725.68 922.70   A 2.04 2.03 13.2 0 1 724.36 920.59   Q 737.95 779.63 751.83 640.04   Q 752.53 633.00 760.14 558.69   Q 762.25 538.12 767.65 492.19   Z"></path>
  <path fill="#ffffff" d="   M 1771.18 502.49   Q 1795.13 578.54 1819.20 655.26   Q 1841.01 724.74 1851.03 758.45   Q 1856.08 775.42 1857.97 782.57   Q 1858.29 783.80 1857.78 784.88   Q 1857.06 786.39 1855.05 786.73   Q 1831.85 790.63 1808.54 793.87   Q 1807.02 793.76 1806.31 792.45   Q 1790.81 763.64 1774.12 734.83   A 0.81 0.80 -18.9 0 0 1773.32 734.44   L 1762.71 735.93   L 1758.47 728.98   A 0.83 0.82 70.5 0 0 1757.66 728.59   Q 1738.73 730.89 1713.70 734.16   Q 1709.28 734.74 1708.49 738.73   Q 1707.82 742.14 1706.99 751.75   Q 1703.85 787.94 1703.12 793.87   Q 1701.83 804.40 1701.10 807.10   C 1699.89 811.62 1696.60 811.98 1691.86 812.75   Q 1664.02 817.30 1647.55 819.92   C 1643.30 820.60 1637.14 821.98 1631.83 822.64   Q 1632.47 818.96 1632.58 817.00   C 1634.75 779.09 1635.85 741.99 1637.06 704.57   Q 1637.66 686.21 1641.78 540.97   C 1641.93 535.65 1641.40 529.31 1645.16 525.13   A 2.93 2.70 4.6 0 1 1645.94 524.52   Q 1649.09 522.87 1654.26 522.01   Q 1663.63 520.46 1672.74 518.97   Q 1722.04 510.87 1771.18 502.49   Z   M 1695.01 652.01   Q 1693.65 654.75 1695.60 657.64   C 1701.73 666.73 1713.26 676.58 1724.57 678.51   Q 1730.37 679.50 1736.81 678.00   C 1751.10 674.68 1756.76 663.58 1758.59 650.03   Q 1759.18 645.62 1757.26 642.27   A 1.00 1.00 0.0 0 0 1756.33 641.77   L 1752.58 642.00   C 1753.68 638.85 1753.97 634.00 1751.95 630.98   A 1.20 1.19 75.7 0 0 1751.10 630.47   Q 1748.30 630.16 1746.64 630.88   Q 1736.51 635.32 1726.38 637.49   Q 1713.58 640.24 1697.78 637.68   C 1693.59 637.00 1687.79 639.76 1689.97 645.02   Q 1691.63 649.04 1695.01 652.01   Z"></path>
  <path fill="#272c96" d="   M 1752.58 642.00   C 1749.85 654.58 1740.15 666.88 1726.50 667.37   C 1714.52 667.80 1703.47 660.26 1695.01 652.01   Q 1691.63 649.04 1689.97 645.02   C 1687.79 639.76 1693.59 637.00 1697.78 637.68   Q 1713.58 640.24 1726.38 637.49   Q 1736.51 635.32 1746.64 630.88   Q 1748.30 630.16 1751.10 630.47   A 1.20 1.19 75.7 0 1 1751.95 630.98   C 1753.97 634.00 1753.68 638.85 1752.58 642.00   Z"></path>
  <path fill="#272c96" d="   M 877.79 711.76   Q 877.12 712.61 876.25 712.73   Q 850.63 716.40 824.60 719.98   Q 828.84 685.39 833.07 650.76   C 833.53 647.05 833.70 643.08 837.39 641.33   Q 843.14 638.59 849.73 639.83   C 851.88 640.24 852.71 641.02 853.65 643.15   Q 856.45 649.54 859.11 656.63   Q 867.72 679.61 876.58 707.34   Q 877.33 709.68 877.79 711.76   Z"></path>
  <path fill="#cbc8e6" d="   M 1695.01 652.01   C 1703.47 660.26 1714.52 667.80 1726.50 667.37   C 1740.15 666.88 1749.85 654.58 1752.58 642.00   L 1756.33 641.77   A 1.00 1.00 0.0 0 1 1757.26 642.27   Q 1759.18 645.62 1758.59 650.03   C 1756.76 663.58 1751.10 674.68 1736.81 678.00   Q 1730.37 679.50 1724.57 678.51   C 1713.26 676.58 1701.73 666.73 1695.60 657.64   Q 1693.65 654.75 1695.01 652.01   Z"></path>
  <path fill="#cbc8e6" d="   M 877.79 711.76   L 881.76 718.81   A 0.71 0.70 -21.0 0 1 881.30 719.84   L 832.04 731.02   A 0.69 0.67 67.3 0 1 831.31 730.71   L 824.60 719.98   Q 850.63 716.40 876.25 712.73   Q 877.12 712.61 877.79 711.76   Z"></path>
  <path fill="#272c96" d="   M 1962.66 749.87   Q 1961.65 752.67 1962.64 755.37   Q 1962.29 762.58 1958.14 768.63   Q 1953.06 776.03 1944.95 778.41   Q 1936.93 780.75 1928.50 778.89   Q 1923.07 777.69 1919.18 774.60   C 1913.00 769.66 1909.26 763.20 1908.81 754.99   C 1908.23 744.34 1911.53 736.46 1919.81 730.13   Q 1923.74 727.13 1929.23 726.14   C 1942.48 723.75 1954.48 728.02 1960.34 740.59   Q 1962.39 744.98 1962.66 749.87   Z   M 1931.92 731.16   Q 1930.52 731.09 1929.63 731.70   A 2.44 2.38 22.8 0 1 1928.56 732.12   C 1924.10 732.78 1920.44 736.85 1917.86 740.32   Q 1915.92 742.94 1915.15 748.61   A 4.10 3.69 -34.9 0 1 1914.97 749.38   Q 1914.37 751.14 1914.58 753.26   Q 1915.22 759.87 1918.69 765.64   C 1919.68 767.31 1920.99 768.37 1922.06 769.43   A 4.24 3.72 78.9 0 0 1922.89 770.07   Q 1927.82 772.91 1931.00 773.82   Q 1931.93 774.08 1933.52 774.28   Q 1936.34 774.64 1940.03 773.87   Q 1953.44 771.04 1956.44 757.55   A 1.74 1.56 -41.8 0 0 1956.48 757.19   L 1956.51 748.68   A 3.08 2.91 -55.4 0 0 1956.37 747.77   Q 1954.61 741.91 1952.49 739.05   Q 1948.58 733.80 1942.38 731.91   Q 1939.34 730.99 1936.27 730.69   Q 1934.18 730.48 1933.00 730.97   A 2.46 2.42 -54.5 0 1 1931.92 731.16   Z"></path>
  <path fill="#cbc8e6" d="   M 1808.54 793.87   Q 1801.20 795.64 1795.42 794.33   Q 1789.39 792.97 1786.56 786.50   Q 1775.39 760.99 1762.71 735.93   L 1773.32 734.44   A 0.81 0.80 -18.9 0 1 1774.12 734.83   Q 1790.81 763.64 1806.31 792.45   Q 1807.02 793.76 1808.54 793.87   Z"></path>
  <path fill="#272c96" d="   M 1932.30 757.07   A 0.47 0.46 90.0 0 0 1931.84 757.54   L 1931.84 764.00   A 2.42 2.42 0.0 0 1 1929.42 766.42   L 1926.53 766.42   A 2.69 2.68 89.9 0 1 1923.85 763.74   Q 1923.85 762.04 1923.85 740.53   C 1923.85 738.40 1926.57 737.52 1928.65 737.49   Q 1934.93 737.39 1938.46 737.68   A 13.24 13.03 59.5 0 1 1943.03 738.90   L 1945.08 739.87   A 3.24 3.20 -6.8 0 1 1946.20 740.74   C 1949.53 744.72 1949.73 752.77 1943.78 754.56   A 1.02 1.02 0.0 0 0 1943.24 756.12   L 1947.92 762.79   A 2.24 2.24 0.0 0 1 1946.82 766.19   L 1945.68 766.59   A 5.25 5.25 0.0 0 1 1939.66 764.65   L 1934.59 757.42   A 0.82 0.80 -17.0 0 0 1933.92 757.07   L 1932.30 757.07   Z   M 1931.83 744.98   L 1931.79 751.22   A 0.26 0.26 0.0 0 0 1932.05 751.48   L 1936.44 751.50   A 3.99 2.14 0.3 0 0 1940.44 749.38   L 1940.46 746.90   A 3.99 2.14 0.3 0 0 1936.48 744.74   L 1932.09 744.72   A 0.26 0.26 0.0 0 0 1931.83 744.98   Z"></path>
  <path fill="#cbc8e6" d="   M 1962.66 749.87   Q 1964.06 752.72 1962.64 755.37   Q 1961.65 752.67 1962.66 749.87   Z"></path>
  <path fill="#cbc8e6" d="   M 950.14 907.43   C 945.00 908.56 937.85 908.18 934.72 903.34   Q 934.35 902.77 932.17 896.93   Q 913.73 847.47 894.59 798.29   L 913.51 792.84   A 0.74 0.74 0.0 0 1 914.42 793.33   L 950.14 907.43   Z"></path>
  <path fill="#cbc8e6" d="   M 1631.17 1001.22   L 1614.47 1013.80   Q 1614.39 1013.75 1614.31 1013.70   L 1631.17 1001.22   Z"></path>
  <path fill="#ffffff" d="   M 1614.31 1013.70   Q 1614.39 1013.75 1614.47 1013.80   Q 1607.31 1026.02 1599.68 1035.43   Q 1582.59 1056.49 1573.85 1065.09   Q 1570.54 1068.35 1568.39 1070.64   Q 1563.69 1075.66 1563.04 1076.29   Q 1545.54 1093.31 1545.36 1093.52   Q 1544.34 1094.76 1539.57 1098.90   Q 1537.25 1100.91 1533.75 1104.24   Q 1533.74 1104.26 1518.69 1118.20   Q 1486.38 1148.13 1449.57 1175.97   Q 1442.99 1180.95 1437.11 1183.89   C 1421.88 1191.51 1406.79 1197.28 1390.36 1202.82   Q 1355.03 1214.72 1316.04 1224.78   Q 1302.23 1228.34 1277.93 1234.39   C 1265.31 1237.53 1251.67 1242.04 1239.22 1245.17   C 1227.27 1248.18 1213.98 1250.24 1202.08 1252.78   Q 1181.51 1257.18 1162.50 1260.42   Q 1156.98 1261.36 1147.31 1262.33   Q 1134.38 1263.63 1111.03 1265.33   C 1107.66 1265.57 1105.54 1265.33 1103.30 1265.74   C 1099.57 1266.41 1095.69 1265.96 1092.05 1266.34   Q 1089.55 1266.60 1083.94 1266.83   Q 1073.36 1267.25 1064.26 1267.58   Q 1058.54 1267.79 1058.00 1267.80   Q 1045.85 1267.99 1033.52 1268.00   C 1025.97 1268.01 1016.86 1267.16 1008.47 1267.20   L 1007.51 1267.00   L 995.80 1266.65   Q 995.03 1266.70 994.75 1266.42   Q 992.71 1266.12 987.25 1266.07   Q 983.72 1266.04 963.88 1264.09   C 960.16 1263.72 957.03 1262.94 953.54 1261.88   Q 952.38 1261.53 951.77 1261.50   A 2.00 0.23 0.4 0 1 950.78 1261.38   Q 901.53 1248.49 854.79 1226.45   Q 839.51 1219.24 835.71 1217.29   Q 773.58 1185.39 716.63 1144.34   Q 708.02 1138.13 698.42 1129.58   C 675.96 1109.59 656.26 1086.27 637.44 1062.23   C 634.10 1057.96 631.35 1053.59 628.03 1048.23   Q 626.81 1046.27 624.70 1039.85   Q 621.94 1031.43 619.32 1022.97   Q 619.34 1022.89 619.54 1022.74   L 651.00 1035.59   Q 655.40 1043.32 658.33 1046.91   Q 676.18 1068.86 676.51 1069.26   Q 697.11 1094.10 720.87 1114.63   Q 729.91 1122.44 737.66 1127.82   Q 769.79 1150.10 809.42 1172.17   C 810.98 1173.04 812.48 1173.43 813.78 1174.42   Q 815.04 1175.39 817.09 1176.39   Q 818.62 1177.13 825.84 1180.87   Q 868.82 1203.13 910.07 1217.88   Q 936.86 1227.46 963.12 1234.04   Q 969.85 1235.72 977.37 1236.30   Q 1002.57 1238.25 1016.50 1238.44   Q 1049.99 1238.90 1060.75 1238.45   Q 1089.84 1237.23 1097.00 1236.74   Q 1115.99 1235.43 1147.71 1232.06   L 1171.06 1229.08   Q 1172.81 1229.16 1175.26 1228.74   Q 1199.06 1224.73 1215.60 1221.46   C 1260.47 1212.59 1305.13 1202.03 1348.90 1188.66   C 1356.53 1186.41 1364.54 1184.15 1371.68 1181.64   C 1379.40 1178.93 1387.24 1176.66 1395.24 1173.55   Q 1397.65 1172.60 1405.20 1169.63   Q 1406.20 1169.24 1407.11 1168.65   L 1409.91 1167.85   Q 1409.96 1167.83 1410.01 1167.81   Q 1422.56 1162.00 1426.48 1159.86   Q 1431.39 1157.17 1436.85 1152.84   Q 1453.52 1139.64 1469.33 1126.81   Q 1478.70 1119.20 1502.18 1101.26   Q 1522.97 1085.36 1541.64 1071.14   C 1565.55 1052.92 1589.97 1032.74 1614.31 1013.70   Z"></path>
  <path fill="#cbc8e6" d="   M 616.72 1021.67   L 607.81 1018.09   L 616.72 1021.67   Z"></path>
  <path fill="#cbc8e6" d="   M 619.54 1022.74   Q 619.34 1022.89 619.32 1022.97   Q 618.90 1022.89 618.72 1022.52   Q 619.21 1022.45 619.54 1022.74   Z"></path>
  <path fill="#ff9501" d="   M 651.00 1035.59   L 1136.26 1232.21   A 2.18 2.07 -33.3 0 0 1137.10 1232.36   L 1147.71 1232.06   Q 1115.99 1235.43 1097.00 1236.74   Q 1089.84 1237.23 1060.75 1238.45   Q 1049.99 1238.90 1016.50 1238.44   Q 1002.57 1238.25 977.37 1236.30   Q 969.85 1235.72 963.12 1234.04   Q 936.86 1227.46 910.07 1217.88   Q 868.82 1203.13 825.84 1180.87   Q 818.62 1177.13 817.09 1176.39   Q 815.04 1175.39 813.78 1174.42   C 812.48 1173.43 810.98 1173.04 809.42 1172.17   Q 769.79 1150.10 737.66 1127.82   Q 729.91 1122.44 720.87 1114.63   Q 697.11 1094.10 676.51 1069.26   Q 676.18 1068.86 658.33 1046.91   Q 655.40 1043.32 651.00 1035.59   Z"></path>
  <path fill="#38973b" d="   M 1407.11 1168.65   Q 1406.20 1169.24 1405.20 1169.63   Q 1397.65 1172.60 1395.24 1173.55   C 1387.24 1176.66 1379.40 1178.93 1371.68 1181.64   C 1364.54 1184.15 1356.53 1186.41 1348.90 1188.66   L 1346.64 1188.67   Q 1347.11 1188.44 1347.64 1188.29   Q 1377.19 1179.59 1406.00 1168.68   Q 1406.58 1168.46 1407.11 1168.65   Z"></path>
  <path fill="#ff9501" d="   M 1348.90 1188.66   C 1305.13 1202.03 1260.47 1212.59 1215.60 1221.46   Q 1199.06 1224.73 1175.26 1228.74   Q 1172.81 1229.16 1171.06 1229.08   Q 1172.90 1228.30 1174.82 1227.97   Q 1251.46 1214.98 1326.39 1194.32   C 1331.20 1193.00 1339.82 1190.31 1346.64 1188.67   L 1348.90 1188.66   Z"></path>
  <path fill="#272c96" d="   M 995.80 1266.65   Q 994.96 1266.73 994.75 1266.42   Q 995.03 1266.70 995.80 1266.65   Z"></path>
  <path fill="#272c96" d="   M 1008.47 1267.20   Q 1007.83 1267.21 1007.51 1267.00   L 1008.47 1267.20   Z"></path>
</svg>
